<?xml version="1.0" encoding="UTF-8"?>
<svg id="litere_cp" data-name="litere cp" xmlns="http://www.w3.org/2000/svg" viewBox="0 0 127.559055 127.559055">
  <path d="m49.468719,120.472441V54.894221h-10.536523v-10.536523h10.536523v-3.617001c0-10.693807,2.51619-20.444086,8.806837-26.577277,5.189404-5.03238,12.109013-7.076806,18.556857-7.076806,5.03238,0,9.121231,1.100811,11.794446,2.201709l-1.887056,10.693807c-2.044426-.943614-4.717813-1.729945-8.806664-1.729945-11.794618,0-14.782572,10.222043-14.782572,22.016747v4.088765h18.399487v10.536523h-18.399487v65.57822h-13.681847Z" style="fill: #ed1c24;"/>
  <path d="m57.251338,115.69003l-1.890625-.033203c.023438-1.331543.046875-2.850098.069336-4.532227l1.890625.025391c-.022461,1.685059-.045898,3.206543-.069336,4.540039Zm.12207-9.080566l-1.890625-.01709.036133-4.533691,1.890625.011719-.036133,4.539062Zm.056641-9.079102l-1.890625-.005859c.004883-1.536133.007812-3.049805.007812-4.532715h1.890625c0,1.484863-.00293,3.000488-.007812,4.538574Zm-1.888672-9.07373c-.00293-1.562988-.008789-3.078613-.016602-4.535156l1.890625-.009766c.007812,1.458496.013672,2.976074.016602,4.541016l-1.890625.003906Zm-.044922-9.071289l-.040039-4.536133,1.890625-.018555.040039,4.540039-1.890625.014648Zm-.09082-9.072266c-.033203-2.595215-.060547-4.216309-.066406-4.536621l1.890625-.03418c.005859.320312.033203,1.945312.066406,4.546387l-1.890625.024414Zm-.133789-9.080566c-.012695-1.224609-.021484-2.601074-.021484-4.117188v-.429688h1.890625v.429688c0,1.509277.008789,2.878906.021484,4.097656l-1.890625.019531Zm1.901367-9.071777l-1.890625-.022461c.012695-1.074707.03125-2.194824.055664-3.35791l.02832-1.19043,1.888672.047852-.026367,1.183105c-.024414,1.156738-.042969,2.270996-.055664,3.339844Zm.228516-9.039062l-1.888672-.078125c.073242-1.759766.163086-3.29541.269531-4.564453l1.882812.15625c-.102539,1.243652-.191406,2.75293-.263672,4.486328Zm.833984-8.910645l-1.867188-.293945c.232422-1.479492.487305-3.049316.771484-4.504395l1.855469.362305c-.27832,1.425293-.530273,2.974121-.759766,4.436035Zm1.828125-8.720703l-1.796875-.585938c.530273-1.626465,1.174805-3.040039,1.969727-4.320801l1.605469.996094c-.712891,1.150879-1.294922,2.430176-1.77832,3.910645Zm4.5-7.209961l-1.296875-1.375977c1.139648-1.073242,2.424805-2.022461,3.819336-2.820312l.939453,1.640625c-1.266602.724121-2.431641,1.583984-3.461914,2.555664Zm20.086914-3.832031c-1.342773-.55957-2.735352-.961914-4.141602-1.195801l.310547-1.864258c1.548828.257324,3.082031.700195,4.557617,1.315918l-.726562,1.744141Zm-12.658203-.456055l-.572266-1.800781c1.900391-.60498,3.561523-.866699,4.620117-.97998l.201172,1.879883c-.97168.103516-2.498047.344238-4.249023.900879Z" style="fill: #fff;"/>
  <path d="m79.408565,50.635342l-1.602539-.003906.005859-1.890625,1.600586.003906-.003906,1.890625Zm-6.138672-.01416l-4.535156-.010742.003906-1.890625,4.536133.010742-.004883,1.890625Zm-9.073242-.021484l-4.535156-.010742.003906-1.890625,4.536133.010742-.004883,1.890625Zm-9.071289-.021484l-4.536133-.010742.003906-1.890625,4.537109.010742-.004883,1.890625Zm-9.074219-.020996l-4.535156-.010742.003906-1.890625,4.536133.010742-.004883,1.890625Z" style="fill: #fff;"/>
  <polygon points="77.654188 7.858528 69.053626 13.268825 78.186155 17.723274 77.977863 13.858374 83.93381 15.559099 83.604026 9.444867 77.865602 11.776068 77.654188 7.858528" style="fill: #fff;"/>
  <polygon points="73.864616 45.011632 65.45486 49.68966 73.864582 54.368157 73.864715 50.702378 79.410695 52.614578 79.410653 46.815341 73.864751 48.727353 73.864616 45.011632" style="fill: #fff;"/>
</svg>