<?xml version="1.0" encoding="UTF-8"?>
<svg id="litere_cp" data-name="litere cp" xmlns="http://www.w3.org/2000/svg" viewBox="0 0 127.559055 127.559055">
  <path d="m99.034714,83.214816c0,14.90305-3.644411,23.818249-10.93306,29.539938-7.605592,5.721689-18.380268,7.717687-28.04573,7.717687-9.18996,0-19.33075-1.862991-25.510358-5.322518l3.485853-9.048353c5.070395,2.79434,12.99293,5.18951,22.500007,5.18951,14.260355,0,24.718087-6.254013,24.718087-22.620738v-7.052354h-.316943c-4.119565,5.987851-12.517428,10.778044-24.401144,10.778044-19.014154,0-32.640796-13.572384-32.640796-31.402783,0-21.822396,16.954111-34.064115,34.700492-34.064115,13.309873,0,20.440137,5.721689,23.92599,11.044206h.316943l.475328-9.71354h12.359044c-.475328,4.524031-.633712,9.846549-.633712,17.564236v37.39078Zm-13.943586-29.540084c0-1.995853-.158558-3.72569-.792271-5.189364-2.535197-6.919346-9.190134-12.508027-19.489308-12.508027-13.309873,0-22.816776,9.447524-22.816776,24.350574,0,12.641035,7.763977,23.152916,22.658218,23.152916,8.714806,0,16.478783-4.524031,19.330923-11.975556.792271-1.995999,1.109214-4.258014,1.109214-6.254013v-11.576531Z" style="fill: #ed1c24;"/>
  <path d="m59.879268,117.143028c-.484375,0-.963867-.006836-1.44043-.020996l.056641-1.918945c1.481445.04248,3.018555.016113,4.513672-.083496l.126953,1.916016c-1.076172.071289-2.171875.107422-3.256836.107422Zm-6.119141-.370117c-1.529297-.183594-3.086914-.439453-4.62793-.759766l.390625-1.879883c1.488281.30957,2.991211.556152,4.46582.733398l-.228516,1.90625Zm14.043945-.277832l-.310547-1.894531.426758-.072754c1.336914-.235352,2.652344-.474121,4.023438-.804199l.449219,1.867188c-1.424805.342285-2.771484.587402-4.141602.828125l-.447266.076172Zm-23.21582-1.623047c-1.479492-.43457-2.97168-.937012-4.4375-1.493164l.681641-1.794922c1.418945.538574,2.865234,1.025391,4.296875,1.446289l-.541016,1.841797Zm32.333008-.716797l-.726562-1.777344c1.40625-.575684,2.682617-1.248047,3.902344-2.056641l1.060547,1.600586c-1.325195.878418-2.710938,1.609375-4.236328,2.233398Zm7.943359-5.269043l-1.357422-1.35791c1.023438-1.022461,1.975586-2.168457,2.829102-3.405762l1.580078,1.09082c-.919922,1.33252-1.946289,2.568359-3.051758,3.672852Zm5.424805-7.797852l-1.734375-.823242c.84082-1.771973,1.332031-3.260742,1.567383-3.976074l.063477-.192871,1.830078.579102-.05957.185547c-.388672,1.175781-.880859,2.570312-1.666992,4.227539Zm2.835938-9.019531l-1.894531-.317383c.264648-1.57959.40625-3.088867.529297-4.499023l1.912109.166016c-.125,1.44873-.271484,3.000977-.546875,4.650391Zm.785156-9.33252l-1.919922-.007812.001953-.414062c0-1.518066-.066406-2.874023-.133789-4.132812l1.917969-.102539c.068359,1.284668.135742,2.669434.135742,4.235352l-.001953.421875Zm-2.240234-9.188477c-.029297-1.373047-.041016-2.882812-.041016-4.627441h1.919922c0,1.729004.011719,3.225098.041016,4.586426l-1.919922.041016Zm1.898438-9.228516l-1.919922-.013672.038086-4.608887,1.919922.016602-.038086,4.605957Zm.088867-9.206543l-1.919922-.03125c.026367-1.617188.058594-3.158203.095703-4.615723l1.919922.048828c-.037109,1.45166-.069336,2.986816-.095703,4.598145Zm.236328-9.193848l-1.917969-.069336c.061523-1.710449.126953-3.253906.19043-4.614746l1.917969.089844c-.063477,1.35498-.128906,2.891602-.19043,4.594238Zm.428711-9.185059l-1.916016-.111328c.105469-1.816406.206055-3.376953.290039-4.608887l1.916016.130859c-.083984,1.227051-.18457,2.780762-.290039,4.589355Z" style="fill: #fff;"/>
  <path d="m62.120479,88.711876c-.5,0-1.008789-.012207-1.529297-.037109l.09375-1.917969c1.527344.075195,2.983398.030762,4.458984-.118164l.193359,1.910156c-1.069336.108398-2.151367.163086-3.216797.163086Zm-6.245117-.63916c-1.165039-.243164-2.328125-.560059-3.457031-.940918-.306641-.104004-.674805-.228516-1.092773-.378906l.648438-1.806641c.40625.145508.762695.266113,1.05957.366699,1.055664.356445,2.143555.652344,3.234375.879883l-.392578,1.879883Zm14.135742-.342285l-.466797-1.862305c1.125-.282227,2.212891-.624512,3.234375-1.016113.335938-.129395.665039-.262695.987305-.400391l.753906,1.765625c-.34375.146484-.694336.288574-1.052734.426758-1.092773.419922-2.255859.785156-3.456055,1.086426Zm-23.032227-2.893555c-1.44043-.775879-2.78125-1.663086-3.987305-2.637207l1.207031-1.493164c1.113281.899414,2.354492,1.720703,3.69043,2.439941l-.910156,1.69043Zm31.753906-.812988l-1.015625-1.629883c1.251953-.779785,2.461914-1.66748,3.595703-2.637695l1.248047,1.458008c-1.206055,1.033691-2.494141,1.978516-3.828125,2.80957Zm-39.138672-5.220215c-.545898-.679688-1.054688-1.397461-1.510742-2.133301-.387695-.625977-.745117-1.275879-1.064453-1.933105l1.728516-.837891c.290039.598633.615234,1.19043.967773,1.759766.415039.669434.87793,1.323242,1.375,1.942383l-1.496094,1.202148Zm46.335938-.932129l-1.449219-1.260742c.989258-1.135742,1.887695-2.338379,2.670898-3.574219l1.621094,1.027344c-.834961,1.317871-1.791016,2.598633-2.842773,3.807617Zm-50.545898-7.637207c-.373047-1.445312-.594727-2.775391-.772461-3.84375-.043945-.265137-.083984-.527344-.121094-.786621l1.902344-.266602c.033203.242676.071289.488281.112305.73584.181641,1.087891.385742,2.317383.738281,3.680664l-1.859375.480469Zm-1.233398-9.356445v-.097168c0-1.578613.108398-3.136719.321289-4.631348l1.900391.270508c-.200195,1.405762-.301758,2.872559-.301758,4.36084l-1.919922.097168Zm3.209961-8.797363l-1.833984-.570312c.47168-1.514648,1.060547-3.000488,1.75-4.416016l1.726562.84082c-.647461,1.328613-1.200195,2.723633-1.642578,4.145508Zm51.041992-4.963379c-.234375-.394531-.749023-1.216797-1.549805-2.287109l1.537109-1.150391c.853516,1.140625,1.408203,2.027832,1.663086,2.455078l-1.650391.982422Zm-47.137695-3.012207l-1.566406-1.111328c.915039-1.288574,1.941406-2.516113,3.051758-3.647461l1.371094,1.344727c-1.040039,1.059082-2.000977,2.208008-2.856445,3.414062Zm42.672852-2.686523c-1.054688-1.084961-2.173828-2.09375-3.326172-2.999023l1.185547-1.509766c1.219727.95752,2.40332,2.024414,3.517578,3.170898l-1.376953,1.337891Zm-36.456055-3.641113l-1.134766-1.547852c.625-.458984,1.280273-.899414,1.945312-1.308594.658203-.404785,1.374023-.798828,2.129883-1.171875l.849609,1.72168c-.702148.34668-1.366211.711914-1.973633,1.085449-.621094.381836-1.232422.792969-1.816406,1.221191Zm29.427734-1.848633c-1.302734-.741211-2.658203-1.372559-4.029297-1.876953l.664062-1.801758c1.46875.540527,2.919922,1.216797,4.314453,2.009766l-.949219,1.668945Zm-21.49707-2.120605l-.580078-1.830078c1.520508-.482422,3.076172-.849121,4.624023-1.089355l.294922,1.897461c-1.451172.225098-2.911133.568848-4.338867,1.021973Zm13.189453-.926758c-.707031-.128418-1.428711-.229004-2.145508-.29834-.75293-.072754-1.516602-.113281-2.270508-.120605l.017578-1.919922c.80957.007812,1.629883.05127,2.438477.129395.769531.074707,1.544922.182617,2.303711.320801l-.34375,1.888672Z" style="fill: #fff;"/>
  <polygon points="85.865548 37.300288 78.829591 35.134303 80.699695 42.254776 82.72368 40.313731 84.604665 44.388281 87.806462 41.317421 83.814131 39.267927 85.865548 37.300288" style="fill: #fff;"/>
  <polygon points="88.118475 39.371768 92.891674 47.952611 97.665348 39.371801 93.924993 39.371666 95.876093 33.712859 89.958877 33.712904 91.909788 39.37163 88.118475 39.371768" style="fill: #fff;"/>
</svg>