<?xml version="1.0" encoding="UTF-8"?>
<svg id="litere_cp" data-name="litere cp" xmlns="http://www.w3.org/2000/svg" viewBox="0 0 127.559055 127.559055">
  <path d="m30.881611,7.086614h14.05346v48.388596h.319441c2.235734-3.992482,5.74923-7.665524,10.061065-10.060978,4.152202-2.395542,9.102744-3.832762,14.372901-3.832762,10.380331,0,26.988965,6.387936,26.988965,32.897829v45.993142h-14.05346v-44.396114c0-12.45652-4.631276-22.836938-17.886222-22.836938-9.102919,0-16.129561,6.387936-18.844368,13.893827-.798514,2.076014-.958322,4.152115-.958322,6.707289v46.631936h-14.05346V7.086614Z" style="fill: #ed1c24;"/>
  <path d="m37.289424,115.513995l-.005859-4.537109,1.890625-.001953.005859,4.536133-1.890625.00293Zm-.011719-9.07373l-.005859-4.536133,1.890625-.002441.005859,4.536133-1.890625.002441Zm-.010742-9.072754l-.005859-4.536133,1.890625-.002441.005859,4.536133-1.890625.002441Zm-.012695-9.072754l-.005859-4.536133,1.890625-.002441.005859,4.536133-1.890625.002441Zm-.009766-9.072754l-.005859-4.536133,1.890625-.002441.005859,4.536133-1.890625.002441Zm-.011719-9.072754l-.005859-4.536133,1.890625-.002441.005859,4.536133-1.890625.002441Zm-.010742-9.072754l-.005859-4.536133,1.890625-.002441.005859,4.536133-1.890625.002441Zm-.012695-9.072754l-.005859-4.536133,1.890625-.002441.005859,4.536133-1.890625.002441Zm-.010742-9.073242l-.005859-4.536133,1.890625-.00293.005859,4.537109-1.890625.001953Zm-.011719-9.072754l-.005859-4.536133,1.890625-.00293.005859,4.537109-1.890625.001953Zm-.010742-9.072754l-.005859-4.536133,1.890625-.00293.005859,4.537109-1.890625.001953Zm-.011719-9.072754l-.005859-4.536133,1.890625-.00293.005859,4.537109-1.890625.001953Z" style="fill: #fff;"/>
  <path d="m91.300166,114.973467l-1.890625-.010742.025391-4.536621,1.890625.009766-.025391,4.537598Zm.051758-9.074707l-1.890625-.009766.023438-4.537598,1.890625.009766-.023438,4.537598Zm.045898-9.075195l-1.890625-.009766.024414-4.538086,1.890625.010742-.024414,4.537109Zm.049805-9.074707l-1.890625-.011719c.012695-2.023926.022461-3.470703.03125-4.254395l.00293-.287109,1.890625.016602-.00293.29248c-.008789.78125-.018555,2.225098-.03125,4.244141Zm-1.946289-9.033691c-.018555-.392578-.042969-.802734-.072266-1.228516,0-.004883-.069336-1.041504-.164062-2.04541l-.115234-1.206543,1.880859-.179688.115234,1.206055c.098633,1.033691.169922,2.098633.169922,2.098633.029297.4375.053711.859375.074219,1.262695l-1.888672.092773Zm-.837891-8.960449c-.213867-1.666992-.452148-3.104492-.730469-4.394043l1.847656-.398438c.289062,1.342285.537109,2.831543.757812,4.552246l-1.875.240234Zm-46.905273-3.462402l-1.4375-1.227539c.75-.879395,1.748047-2.050293,2.938477-3.452637l1.441406,1.223633c-1.192383,1.40332-2.191406,2.576172-2.942383,3.456543Zm44.953125-5.145996c-.541016-1.419434-1.178711-2.680176-1.950195-3.854492l1.580078-1.037109c.84668,1.289551,1.545898,2.669922,2.135742,4.21875l-1.765625.672852Zm-39.078125-1.774414l-1.443359-1.219727.830078-.98291c1.124023-1.331543,1.71875-2.035645,2.120117-2.486816l1.412109,1.255859c-.395508.444824-.980469,1.138672-2.087891,2.450195l-.831055.983398Zm34.354492-5.363281c-1.032227-.961426-2.200195-1.824707-3.47168-2.564453l.951172-1.633789c1.392578.810547,2.674805,1.757812,3.80957,2.81543l-1.289062,1.382812Zm-28.161133-.846191l-1.068359-1.55957c1.267578-.868652,2.647461-1.640137,4.101562-2.293457l.775391,1.724609c-1.352539.606934-2.633789,1.323242-3.808594,2.128418Zm20.732422-3.519531c-1.758789-.606445-3.271484-.898438-4.231445-1.036133l.269531-1.871094c1.040039.149902,2.678711.465332,4.577148,1.120117l-.615234,1.787109Zm-12.774414-.120117l-.554688-1.806641c1.047852-.321777,2.664062-.774902,4.594727-.999512l.21875,1.87793c-1.77832.206055-3.282227.628418-4.258789.928223Z" style="fill: #fff;"/>
  <polygon points="33.536348 19.191918 38.236836 27.642051 42.937795 19.191953 39.254417 19.191819 41.175798 13.619213 35.348718 13.619255 37.269909 19.191783 33.536348 19.191918" style="fill: #fff;"/>
  <polygon points="45.563838 65.096184 46.707791 58.809074 40.762567 61.152654 42.643599 62.697745 39.324882 64.737717 42.300769 67.181911 43.657065 63.530181 45.563838 65.096184" style="fill: #fff;"/>
</svg>