<?xml version="1.0" encoding="UTF-8"?>
<svg id="litere_cp" data-name="litere cp" xmlns="http://www.w3.org/2000/svg" viewBox="0 0 127.559055 127.559055">
  <path d="m71.181659,7.086614v113.385827h-14.804263V7.086614h14.804263Z" style="fill: #1c75bc;"/>
  <path d="m63.319824,115.134962l-.017578-4.174316,1.739258-.007324.017578,4.173828-1.739258.007812Zm-.035645-8.349121l-.017578-4.174805,1.739258-.006836.017578,4.174316-1.739258.007324Zm-.034668-8.347656l-.017578-4.174805,1.739258-.007324.017578,4.174805-1.739258.007324Zm-.034668-8.348633l-.017578-4.174805,1.739258-.007324.017578,4.174805-1.739258.007324Zm-.035645-8.348633l-.017578-4.174805,1.739258-.007324.017578,4.174805-1.739258.007324Zm-.034668-8.348633l-.017578-4.174805,1.739258-.006836.017578,4.173828-1.739258.007812Zm-.035156-8.348633l-.017578-4.173828,1.739258-.007324.017578,4.173828-1.739258.007324Zm-.035156-8.349121l-.017578-4.173828,1.739258-.007324.017578,4.173828-1.739258.007324Zm-.035156-8.347656l-.017578-4.174805,1.739258-.007324.017578,4.174805-1.739258.007324Zm-.034668-8.348633l-.017578-4.174805,1.739258-.007324.017578,4.174805-1.739258.007324Zm-.035156-8.348633l-.017578-4.174805,1.739258-.007324.017578,4.174805-1.739258.007324Zm-.034668-8.348633l-.017578-4.173828,1.739258-.007324.017578,4.173828-1.739258.007324Zm-.035156-8.348633l-.017578-4.173828,1.739258-.007324.017578,4.173828-1.739258.007324Z" style="fill: #fff;"/>
  <polygon points="57.93859 16.546716 63.779232 27.046526 69.620465 16.546762 65.043642 16.546594 67.431076 9.622289 60.190572 9.622339 62.577768 16.546549 57.93859 16.546716" style="fill: #fff;"/>
</svg>