<?xml version="1.0" encoding="UTF-8"?>
<svg id="litere_cp" data-name="litere cp" xmlns="http://www.w3.org/2000/svg" viewBox="0 0 127.559055 127.559055">
  <path d="m72.01891,26.740221c0,4.535393-3.174659,8.16374-8.465978,8.16374-4.837796,0-8.012787-3.628347-8.012787-8.16374,0-4.535558,3.326275-8.315025,8.315025-8.315025,4.837796,0,8.16374,3.628347,8.16374,8.315025Zm-14.815627,93.73222V47.30069h13.304106v73.171751h-13.304106Z" style="fill: #1c75bc;"/>
  <path d="m62.73083,117.216505l-.003906-1.919434,1.699219-.00293.003906,1.91748-1.699219.004883Zm-.010742-5.995605l-.006836-4.077148,1.699219-.00293.006836,4.076172-1.699219.003906Zm-.014648-8.153809l-.006836-4.077148,1.699219-.00293.006836,4.076172-1.699219.003906Zm-.014648-8.15332l-.006836-4.077637,1.699219-.002441.006836,4.076172-1.699219.003906Zm-.014648-8.15332l-.006836-4.077637,1.699219-.001953.006836,4.075684-1.699219.003906Zm-.014648-8.15332l-.006836-4.077637,1.699219-.001953.006836,4.075684-1.699219.003906Zm-.014648-8.153809l-.006836-4.077148,1.699219-.002441.006836,4.075684-1.699219.003906Zm-.014648-8.15332l-.006836-4.077148,1.699219-.00293.006836,4.076172-1.699219.003906Zm-.014648-8.15332l-.006836-4.077637,1.699219-.002441.006836,4.076172-1.699219.003906Z" style="fill: #fff;"/>
  <polygon points="57.67996 55.143629 63.579844 65.749926 69.480314 55.143669 64.857072 55.143503 67.268716 48.148969 59.954778 48.149024 62.366189 55.143458 57.67996 55.143629" style="fill: #fff;"/>
</svg>