<?xml version="1.0" encoding="UTF-8"?>
<svg id="litere_cp" data-name="litere cp" xmlns="http://www.w3.org/2000/svg" viewBox="0 0 127.559055 127.559055">
  <path d="m67.396444,26.929134l11.770112,15.387028h-8.21454l-7.111143-10.114609h-.24511l-7.111143,10.114609h-8.09212l11.525002-15.387028h7.478942Zm-9.940444,93.543307V51.694803h12.505167v68.777638h-12.505167Z" style="fill: #1c75bc;"/>
  <path d="m63.139033,117.459054l-.00293-1.803223,1.595703-.00293.00293,1.803223-1.595703.00293Zm-.009766-5.634766l-.006836-3.833008,1.595703-.002441.006836,3.831543-1.595703.003906Zm-.014648-7.663086l-.006836-3.83252,1.595703-.002441.006836,3.831055-1.595703.003906Zm-.013672-7.664062l-.006836-3.83252,1.595703-.00293.006836,3.831543-1.595703.003906Zm-.013672-7.664062l-.006836-3.833008,1.595703-.002441.006836,3.831543-1.595703.003906Zm-.012695-7.664062l-.006836-3.833008,1.595703-.001953.006836,3.831055-1.595703.003906Zm-.013672-7.663574l-.006836-3.83252,1.595703-.002441.006836,3.831055-1.595703.003906Zm-.013672-7.664062l-.006836-3.833008,1.595703-.002441.006836,3.831543-1.595703.003906Zm-.013672-7.663574l-.006836-3.833008,1.595703-.001953.006836,3.831055-1.595703.003906Z" style="fill: #fff;"/>
  <polygon points="58.08696 59.202665 63.780428 69.437886 69.474462 59.202704 65.01297 59.202543 67.34024 52.452723 60.28219 52.452775 62.609235 59.202499 58.08696 59.202665" style="fill: #fff;"/>
</svg>