<?xml version="1.0" encoding="UTF-8"?>
<svg id="litere_cp" data-name="litere cp" xmlns="http://www.w3.org/2000/svg" viewBox="0 0 127.559055 127.559055">
  <path d="m67.805934,7.086614l13.211593,14.364999h-9.310822l-7.927177-8.694601h-.251547l-8.052812,8.694601h-8.93364l12.834134-14.364999h8.43027Zm1.970766,19.385699v94.000128h-12.273162V26.472313h12.273162Z" style="fill: #1c75bc;"/>
  <g>
    <path d="m63.258301,116.502511l-.014648-3.460938,1.442383-.005859.014648,3.460938-1.442383.005859Zm-.028809-6.921387l-.014648-3.460938,1.442383-.005859.014648,3.460938-1.442383.005859Zm-.028809-6.921875l-.014648-3.460938,1.442383-.005859.014648,3.460938-1.442383.005859Zm-.028809-6.921875l-.014648-3.460938,1.442383-.005859.014648,3.460938-1.442383.005859Zm-.029297-6.921387l-.014648-3.460938,1.442383-.005859.014648,3.460938-1.442383.005859Zm-.028809-6.921875l-.014648-3.460938,1.442383-.005859.014648,3.460938-1.442383.005859Zm-.029297-6.921387l-.014648-3.460938,1.442383-.005859.014648,3.460938-1.442383.005859Zm-.028809-6.922363l-.014648-3.460938,1.442383-.005859.014648,3.460938-1.442383.005859Zm-.029297-6.921387l-.014648-3.460938,1.442383-.005859.014648,3.460938-1.442383.005859Zm-.028809-6.921875l-.014648-3.460938,1.442383-.005859.014648,3.460938-1.442383.005859Zm-.029297-6.921875l-.014648-3.460938,1.442383-.005859.014648,3.460938-1.442383.005859Zm-.028809-6.921387l-.014648-3.460938,1.442383-.005859.014648,3.460938-1.442383.005859Zm-.029297-6.921875l-.014648-3.460938,1.442383-.005859.014648,3.460938-1.442383.005859Z" style="fill: #fff;"/>
    <polygon points="58.797406 34.763691 63.639874 43.469068 68.482831 34.763729 64.688194 34.763591 66.667613 29.02266 60.664521 29.022701 62.643742 34.763553 58.797406 34.763691" style="fill: #fff;"/>
  </g>
</svg>